# xmcd
#
# Track frame offsets: 
#        150
#        17379
#        36470
#        43177
#        55033
#        66882
#        75956
#        86908
#        95757
#        106008
#        116074
#        126808
#        130872
#        142921
#        151485
#        158397
#        171052
#        183207
#        195803
#        205703
#        218602
#
# Disc length: 3124 seconds
#
# Revision: 2
# Processed by: cddbd v1.5PL3 Copyright (c) Steve Scherf et al.
# Submitted via: ExactAudioCopy v0.95a3
#
DISCID=080c3215
DTITLE=Various Artist - Debra Doo-Wop Vol. 2  1957-1964
DYEAR=2004
DGENRE=Oldies
TTITLE0=Halos (Dick and the) - I Found My Love
TTITLE1=Halos (Dick and the) - Near You
TTITLE2=Halos (Dick and the) - Chapel Bells(outtake)
TTITLE3=Palisades - Chapel Bells
TTITLE4=Magics - Chapel Bells
TTITLE5=Precisions - Sweet Dreams
TTITLE6=Precisions - Dream On
TTITLE7=Precisions - You Can't Play Games
TTITLE8=Precisions - Stop Leading Me On
TTITLE9=Blue Counts (Mike Lanzo and the) - At The Fair
TTITLE10=Blue Counts (Mike Lanzo and the) - Ghost Town
TTITLE11=Blue Counts (Mike Lanzo and the) - She Can't Stop Dancing
TTITLE12=Magics - She Can't Stop Dancing
TTITLE13=Magics - Oh Rosemarie
TTITLE14=Magics - Bong Bong(outtakes)
TTITLE15=Magics - Bong Bong
TTITLE16=Magics - The Whole World In My Arms
TTITLE17=Magics - A Night To Remember
TTITLE18=Magics - Shop Shop Dowop
TTITLE19=Magics - Robe Of Calvary
TTITLE20=Magics - Summer Romance
EXTD=
EXTT0=
EXTT1=
EXTT2=
EXTT3=
EXTT4=
EXTT5=
EXTT6=
EXTT7=
EXTT8=
EXTT9=
EXTT10=
EXTT11=
EXTT12=
EXTT13=
EXTT14=
EXTT15=
EXTT16=
EXTT17=
EXTT18=
EXTT19=
EXTT20=
PLAYORDER=
